<?xml version="1.0" encoding="UTF-8"?>
<svg xmlns="http://www.w3.org/2000/svg" xmlns:xlink="http://www.w3.org/1999/xlink" id="Layer_1" data-name="Layer 1" viewBox="0 0 238.68 22.95">
  <defs>
    <style>.cls-1{fill:none;clip-rule:evenodd;}.cls-2{fill:#fdc300;}.cls-3{fill:#fff;}.cls-4{clip-path:url(#clip-path);}</style>
    <clipPath id="clip-path">
      <path class="cls-1" d="M43.8,19H36.11L34.74,23H48.91c-2.26,0-4.07-1.53-5.11-3.95"></path>
    </clipPath>
  </defs>
  <title>STOPCARSsro_logo</title>
  <path class="cls-2" d="M194.87.73l-1.79,5.12H180.22a2.57,2.57,0,0,0-1.55.41,2.69,2.69,0,0,0-.65.81.81.81,0,0,0-.06.4c0,.22,0,.33,0,.33a.72.72,0,0,0-.06.29q0,.81,1.23.81H189a4.42,4.42,0,0,1,2.71.78,2.6,2.6,0,0,1,1.05,2.22,4.89,4.89,0,0,1-.33,1.67q-.81,2.2-2.39,6.44a4.08,4.08,0,0,1-1,1.74,2.9,2.9,0,0,1-2.07.68H168.57l1.83-5.11h12.82a2.13,2.13,0,0,0,2.23-1.22c.27-.7.45-1,.52-1a.83.83,0,0,0,0-.22c0-.57-.47-.86-1.39-.86h-9.89a4.33,4.33,0,0,1-2.68-.79A2.63,2.63,0,0,1,171,11a5,5,0,0,1,.3-1.62q2.07-6,2.13-6.21a2.9,2.9,0,0,1,3.1-2.42Zm-22.19,0-1.82,5.12H162a3.12,3.12,0,0,0-1.65.43,1.9,1.9,0,0,0-.91,1l-5.39,15.16h-5.94l6.54-18.54c.74-2.1,2.36-3.16,4.87-3.16ZM151.53,5.06l-6.12,17.37H127.14a2.59,2.59,0,0,1-2.23-1,3.58,3.58,0,0,1-.6-2.13,4.69,4.69,0,0,1,.27-1.61L126.92,11a3.35,3.35,0,0,1,3.46-2.46h14l.41-1.27a1.26,1.26,0,0,0,.08-.45c0-.63-.41-1-1.22-1H128.69l1.8-5.12h18.4a2.56,2.56,0,0,1,2.89,2.89A4,4,0,0,1,151.53,5.06Zm-8.95,8.58h-9.37a1.63,1.63,0,0,0-1.69,1.16l-.35.94a2.39,2.39,0,0,0-.11.66.82.82,0,0,0,.92.92h9.32Zm-22,8.79H105.14a4.34,4.34,0,0,1-2.68-.77,2.6,2.6,0,0,1-1-2.22,5,5,0,0,1,.3-1.63l5.12-14.65a3.12,3.12,0,0,1,3.1-2.43h18.35l-1.8,5.12H113.63c-1.19,0-1.93.41-2.2,1.23q.07-.3-3.24,9.17a.89.89,0,0,0,0,.22c0,.56.45.85,1.36.85h12.91Z"></path>
  <path class="cls-3" d="M209.05,13.84l-.71,2h-5.07a1,1,0,0,0-.61.16.91.91,0,0,0-.26.32s0,.07,0,.15a.6.6,0,0,1,0,.13.27.27,0,0,0,0,.12c0,.21.17.32.49.32h3.9a1.72,1.72,0,0,1,1.07.31,1,1,0,0,1,.41.87,1.84,1.84,0,0,1-.13.66c-.21.58-.53,1.43-.94,2.54a1.57,1.57,0,0,1-.41.69,1.16,1.16,0,0,1-.82.27h-7.24l.72-2h5.06a.84.84,0,0,0,.88-.48q.16-.42.21-.39s0-.06,0-.09c0-.23-.19-.34-.55-.34h-3.9a1.69,1.69,0,0,1-1.06-.31,1,1,0,0,1-.41-.89,1.91,1.91,0,0,1,.11-.64c.55-1.58.83-2.39.84-2.45a1.14,1.14,0,0,1,1.23-.95Z"></path>
  <polygon class="cls-3" points="211.85 20.38 211.14 22.4 208.8 22.4 209.51 20.38 211.85 20.38"></polygon>
  <path class="cls-3" d="M224.25,13.84l-.72,2h-5.88A1.28,1.28,0,0,0,217,16a.76.76,0,0,0-.36.4l-2.12,6h-2.35l2.58-7.32a1.84,1.84,0,0,1,1.93-1.24Z"></path>
  <polygon class="cls-3" points="221.88 20.38 221.17 22.4 218.82 22.4 219.53 20.38 221.88 20.38"></polygon>
  <path class="cls-3" d="M235.76,16.1l-1.95,5.51a1.1,1.1,0,0,1-.55.63,1.41,1.41,0,0,1-.67.16h-6.23q-1.29,0-1.29-1.11a3.47,3.47,0,0,1,.25-1.15l.18-.45,1.77-5.05a1.07,1.07,0,0,1,.53-.63,1.41,1.41,0,0,1,.69-.17h6.22c.86,0,1.28.37,1.28,1.1a3.93,3.93,0,0,1-.23,1.16m-2.51.42a.54.54,0,0,0,.05-.21q0-.45-.39-.45h-3.12a.85.85,0,0,0-.85.64l-1.12,3.21a.93.93,0,0,0,0,.23c0,.29.13.44.39.44h3.12a.84.84,0,0,0,.59-.19,1.25,1.25,0,0,0,.24-.44Z"></path>
  <polygon class="cls-3" points="238.68 20.38 237.97 22.4 235.62 22.4 236.33 20.38 238.68 20.38"></polygon>
  <path class="cls-3" d="M58.62.42,54.39.15,52,0c-4.08,0-8.11,5.15-9,11.47S44.77,23,48.91,23h7c4.14,0,7.94-5.15,8.73-11.48s-1.93-11-6-11M46.93,19.56h0c-2.14-1.21-3.35-4.37-2.84-8.08.66-4.74,3.86-8.6,7.14-8.6h.13a4.15,4.15,0,0,1,2.94,1.4,8.74,8.74,0,0,1,1.8,6.56q0,.32-.06.63c0,.36-.11.71-.18,1.06a11.14,11.14,0,0,1-3.47,6.13,5.63,5.63,0,0,1-3.15,1.4l-.33,0A4,4,0,0,1,46.93,19.56Z"></path>
  <path class="cls-3" d="M49.7,19.14c2,0,3.94-1.79,5.08-4.37a11.9,11.9,0,0,0,.92-3.3,10.56,10.56,0,0,0-.06-3.29c-.46-2.58-1.92-4.37-3.89-4.37h-.13c-2.68.11-5.3,3.5-5.87,7.65,0,.16,0,.31,0,.46s0,.09,0,.13A8.19,8.19,0,0,0,47,17.64a3.25,3.25,0,0,0,.23.29,3.39,3.39,0,0,0,2,1.16,3.1,3.1,0,0,0,.54.05m1.41-10.5c-.8,0-1.29-1.3-1.13-3a.58.58,0,0,1,.28-.49,2.86,2.86,0,0,1,2.64,0,.45.45,0,0,1,.15.49C52.74,7.34,51.91,8.64,51.11,8.64ZM52,11.47c-.14,1.06-.81,1.92-1.5,1.92s-1.13-.86-1-1.92S50.3,9.56,51,9.56,52.11,10.42,52,11.47Zm-3.06-1.06a1.53,1.53,0,0,1-1.2.58h-.22c-.47-.1-.37-.75-.27-1.1a11.26,11.26,0,0,1,.93-2.16c.24-.38.79-1.07,1.09.14A3,3,0,0,1,48.91,10.41ZM46.81,13a.83.83,0,0,1,.72-.92,1.15,1.15,0,0,1,1.09.57,3,3,0,0,1-.37,2.55c-.6,1.14-1,.47-1,.41A9.49,9.49,0,0,1,46.81,13Zm7.34-6.44a.18.18,0,0,1,.16.08l0,.05A6.78,6.78,0,0,1,55,8.57a8.47,8.47,0,0,1,.15,1.54.66.66,0,0,1-.23.53,1.82,1.82,0,0,1-1.06.35,1.14,1.14,0,0,1-1-.58c-.41-.81,0-2.21,1.09-3.74A.32.32,0,0,1,54.15,6.52Zm-1.61,6a1.52,1.52,0,0,1,2.17-.23.42.42,0,0,1,.11.26.62.62,0,0,1,0,.27A9.51,9.51,0,0,1,53.31,16c-.08.11-.15.22-.23.32a.29.29,0,0,1-.23.13h0a.22.22,0,0,1-.19-.16C51.94,14.74,51.91,13.35,52.54,12.54Zm-4.15,4.83c.31-1.72,1.15-3,2-3s1.29,1.3,1.14,3a.6.6,0,0,1-.28.49,3.3,3.3,0,0,1-1.37.32,2.77,2.77,0,0,1-1.29-.32A.46.46,0,0,1,48.39,17.37Z"></path>
  <path class="cls-3" d="M90.19,1.46a4.45,4.45,0,0,0-2.7-.78H70.67L68.55,5.8H83.11c.91,0,1.36.29,1.36.87a1.64,1.64,0,0,1,0,.22l-.28.76a1.18,1.18,0,0,1-.49.71,3.13,3.13,0,0,1-1.36.22H73.5l.75-2.12H68.33l-5.64,16,5.91,0,3.13-8.79H86.22a3.51,3.51,0,0,0,2.64-2.5l2.06-5.8a4.89,4.89,0,0,0,.33-1.67,2.55,2.55,0,0,0-1.06-2.21"></path>
  <path class="cls-3" d="M42.8.73H8a2.9,2.9,0,0,0-3.1,2.42q-.06.21-2.13,6.21A5,5,0,0,0,2.42,11a2.69,2.69,0,0,0,1.09,2.28A4.24,4.24,0,0,0,6.15,14H16.34c.45.07,1.17.38.65,1.79,0,.09-.07.18-.11.28a2.13,2.13,0,0,1-2.23,1.22H1.82L0,22.43H18.35a2.9,2.9,0,0,0,2.07-.68,4.18,4.18,0,0,0,1-1.74q1.58-4.23,2.39-6.44a4.89,4.89,0,0,0,.33-1.67,2.6,2.6,0,0,0-1.05-2.22,4.42,4.42,0,0,0-2.71-.78h-10c-1,0-1-1.16-1-1.16a2.23,2.23,0,0,1,.69-1.46l0,0a2.55,2.55,0,0,1,1.55-.41H43.1L45.23.73Z"></path>
  <polygon class="cls-3" points="31.76 6.51 26.14 22.43 32.08 22.43 37.7 6.51 31.76 6.51"></polygon>
</svg>
